<svg xmlns="http://www.w3.org/2000/svg" xmlns:xlink="http://www.w3.org/1999/xlink" width="31" height="32.999" viewBox="0 0 31 32.999">
  <defs>
    <filter id="Path_262" x="6.809" y="0" width="24.191" height="24.135" filterUnits="userSpaceOnUse">
      <feOffset dy="3" input="SourceAlpha"/>
      <feGaussianBlur stdDeviation="3" result="blur"/>
      <feFlood flood-opacity="0.161"/>
      <feComposite operator="in" in2="blur"/>
      <feComposite in="SourceGraphic"/>
    </filter>
  </defs>
  <g id="Group_240" data-name="Group 240" transform="translate(-779 -2270.001)">
    <g id="Subtraction_10" data-name="Subtraction 10" transform="translate(7165 2270.343)" fill="#f2f2f2">
      <path d="M -6366.00048828125 32.15610122680664 L -6384 32.15610122680664 C -6384.8271484375 32.15610122680664 -6385.50048828125 31.48386192321777 -6385.50048828125 30.65756225585938 L -6385.50048828125 7.655982494354248 C -6385.50048828125 6.82968282699585 -6384.8271484375 6.157442569732666 -6384 6.157442569732666 L -6370.4267578125 6.157442569732666 L -6364.50048828125 11.97662353515625 L -6364.50048828125 30.65756225585938 C -6364.50048828125 31.48386192321777 -6365.17333984375 32.15610122680664 -6366.00048828125 32.15610122680664 Z" stroke="none"/>
      <path d="M -6366.00048828125 31.65610313415527 C -6365.44921875 31.65610313415527 -6365.00048828125 31.20816230773926 -6365.00048828125 30.65756225585938 L -6365.00048828125 12.18640518188477 L -6370.630859375 6.657442569732666 L -6384 6.657442569732666 C -6384.5517578125 6.657442569732666 -6385.00048828125 7.105382442474365 -6385.00048828125 7.655982494354248 L -6385.00048828125 30.65756225585938 C -6385.00048828125 31.20816230773926 -6384.5517578125 31.65610313415527 -6384 31.65610313415527 L -6366.00048828125 31.65610313415527 M -6366.00048828125 32.65610122680664 L -6384 32.65610122680664 C -6385.10302734375 32.65610122680664 -6386.00048828125 31.75956344604492 -6386.00048828125 30.65756225585938 L -6386.00048828125 7.655982494354248 C -6386.00048828125 6.553982734680176 -6385.10302734375 5.657442569732666 -6384 5.657442569732666 L -6370.22216796875 5.657442569732666 L -6364.00048828125 11.76684284210205 L -6364.00048828125 30.65756225585938 C -6364.00048828125 31.75956344604492 -6364.8974609375 32.65610122680664 -6366.00048828125 32.65610122680664 Z" stroke="none" fill="#d0d0d0"/>
    </g>
    <rect id="Rectangle_842" data-name="Rectangle 842" width="4" height="11" rx="1" transform="translate(793 2288)" fill="#006a9f"/>
    <rect id="Rectangle_840" data-name="Rectangle 840" width="4" height="8" rx="1" transform="translate(783 2291)" fill="#006a9f"/>
    <rect id="Rectangle_841" data-name="Rectangle 841" width="4" height="13" rx="1" transform="translate(788 2286)" fill="#006a9f"/>
    <g transform="matrix(1, 0, 0, 1, 779, 2270)" filter="url(#Path_262)">
      <path id="Path_262-2" data-name="Path 262" d="M0,0,6.191,6.135H0Z" transform="translate(15.81 6)" fill="#d0d0d0"/>
    </g>
  </g>
</svg>
