<svg xmlns="http://www.w3.org/2000/svg" xmlns:xlink="http://www.w3.org/1999/xlink" width="713.229" height="709.138" viewBox="0 0 713.229 709.138">
  <defs>
    <filter id="Path_1">
      <feOffset dy="3" input="SourceAlpha"/>
      <feGaussianBlur stdDeviation="25" result="blur"/>
      <feFlood flood-opacity="0.102" result="color"/>
      <feComposite operator="out" in="SourceGraphic" in2="blur"/>
      <feComposite operator="in" in="color"/>
      <feComposite operator="in" in2="SourceGraphic"/>
    </filter>
    <filter id="Path_2">
      <feOffset dy="3" input="SourceAlpha"/>
      <feGaussianBlur stdDeviation="25" result="blur-2"/>
      <feFlood flood-opacity="0.102" result="color-2"/>
      <feComposite operator="out" in="SourceGraphic" in2="blur-2"/>
      <feComposite operator="in" in="color-2"/>
      <feComposite operator="in" in2="SourceGraphic"/>
    </filter>
  </defs>
  <g id="Group_142" data-name="Group 142" transform="translate(-611.572 108.894)" opacity="0.5">
    <g data-type="innerShadowGroup">
      <path id="Path_1-2" data-name="Path 1" d="M803.588,330.574V656.129c-.117,2.349.117,4.64,0,6.931a12.16,12.16,0,0,0,0,1.468C798.6,741.35,752.2,796.5,707.326,830.8c-67.9,51.861-145.716,50.041-194.934,31.011-14.86-6.108-17.8-9.045-26.782-12.628-3.289-1.879-6.578-3.759-9.749-5.755-7.988-4.052-9.516-6.93-13.215-9.221-5.873-4.7-10.22-8.4-16.739-14.272a95.031,95.031,0,0,1-8.4-8.282A203.261,203.261,0,0,1,415.6,783.99c62.08-26.547,136.082-105.543,136.847-199.28V257.159c-.646-20.439-4.4-69.6,41.29-69.6,9.162,0,20.38,1.938,33.947,6.578l101.9,29.014C784.5,239.3,803.588,242.945,803.588,330.574Z" transform="translate(521.179 -296.454)" fill="#ebeaea"/>
      <g transform="matrix(1, 0, 0, 1, 611.57, -108.89)" filter="url(#Path_1)">
        <path id="Path_1-3" data-name="Path 1" d="M803.588,330.574V656.129c-.117,2.349.117,4.64,0,6.931a12.16,12.16,0,0,0,0,1.468C798.6,741.35,752.2,796.5,707.326,830.8c-67.9,51.861-145.716,50.041-194.934,31.011-14.86-6.108-17.8-9.045-26.782-12.628-3.289-1.879-6.578-3.759-9.749-5.755-7.988-4.052-9.516-6.93-13.215-9.221-5.873-4.7-10.22-8.4-16.739-14.272a95.031,95.031,0,0,1-8.4-8.282A203.261,203.261,0,0,1,415.6,783.99c62.08-26.547,136.082-105.543,136.847-199.28V257.159c-.646-20.439-4.4-69.6,41.29-69.6,9.162,0,20.38,1.938,33.947,6.578l101.9,29.014C784.5,239.3,803.588,242.945,803.588,330.574Z" transform="translate(-90.39 -187.56)" fill="#fff"/>
      </g>
    </g>
    <g data-type="innerShadowGroup">
      <path id="Path_2-2" data-name="Path 2" d="M761.321,895.236c-9.691-2.584-166.683-44.813-223.771-61.9l-2.174-.646c-.411-.117-.822-.294-1.233-.412-5.4-1.644-9.456-2.937-11.687-3.7V828.4c-96.439-33.712-164.628-129.447-162.162-242.624V250.822c0-36.3-.058-62.961,34.123-62.961,8.165,0,18.208,1.527,30.659,4.758L544.3,226.271c49.453,18.736,68.248,15.447,67.073,88.216V657.252C609.027,765.555,671.4,857.941,761.321,895.236Z" transform="translate(251.343 -294.992)" fill="#ebeaea"/>
      <g transform="matrix(1, 0, 0, 1, 611.57, -108.89)" filter="url(#Path_2)">
        <path id="Path_2-3" data-name="Path 2" d="M761.321,895.236c-9.691-2.584-166.683-44.813-223.771-61.9l-2.174-.646c-.411-.117-.822-.294-1.233-.412-5.4-1.644-9.456-2.937-11.687-3.7V828.4c-96.439-33.712-164.628-129.447-162.162-242.624V250.822c0-36.3-.058-62.961,34.123-62.961,8.165,0,18.208,1.527,30.659,4.758L544.3,226.271c49.453,18.736,68.248,15.447,67.073,88.216V657.252C609.027,765.555,671.4,857.941,761.321,895.236Z" transform="translate(-360.23 -186.1)" fill="#fff"/>
      </g>
    </g>
  </g>
</svg>
